<?xml version="1.0" encoding="UTF-8" standalone="no"?>
<svg
   xmlns:dc="http://purl.org/dc/elements/1.1/"
   xmlns:cc="http://creativecommons.org/ns#"
   xmlns:rdf="http://www.w3.org/1999/02/22-rdf-syntax-ns#"
   xmlns:svg="http://www.w3.org/2000/svg"
   xmlns="http://www.w3.org/2000/svg"
   xmlns:sodipodi="http://sodipodi.sourceforge.net/DTD/sodipodi-0.dtd"
   xmlns:inkscape="http://www.inkscape.org/namespaces/inkscape"
   t="1543470305804"
   class="icon"
   style=""
   viewBox="0 0 1024 1024"
   version="1.1"
   p-id="1454"
   width="200"
   height="200"
   id="svg8"
   sodipodi:docname="心_实.svg"
   inkscape:version="0.92.3 (2405546, 2018-03-11)">
  <metadata
     id="metadata12">
    <rdf:RDF>
      <cc:Work
         rdf:about="">
        <dc:format>image/svg+xml</dc:format>
        <dc:type
           rdf:resource="http://purl.org/dc/dcmitype/StillImage" />
        <dc:title></dc:title>
      </cc:Work>
    </rdf:RDF>
  </metadata>
  <sodipodi:namedview
     pagecolor="#ffffff"
     bordercolor="#666666"
     borderopacity="1"
     objecttolerance="10"
     gridtolerance="10"
     guidetolerance="10"
     inkscape:pageopacity="0"
     inkscape:pageshadow="2"
     inkscape:window-width="1830"
     inkscape:window-height="1053"
     id="namedview10"
     showgrid="false"
     inkscape:zoom="1.18"
     inkscape:cx="-39.40678"
     inkscape:cy="100"
     inkscape:window-x="81"
     inkscape:window-y="-9"
     inkscape:window-maximized="1"
     inkscape:current-layer="svg8" />
  <defs
     id="defs4">
    <style
       type="text/css"
       id="style2" />
  </defs>
  <path
     d="M104.512 405.568c0 217.92 272.512 462.464 407.488 462.464 135.744 0 407.488-243.2 407.488-462.464 0-140.672-93.12-249.6-215.232-249.6-82.112 0-134.144 39.04-161.92 122.368a32 32 0 0 1-60.672 0c-27.776-83.328-79.808-122.368-161.92-122.368-122.112 0-215.232 108.928-215.232 249.6z m599.744-313.6c159.872 0 279.232 139.584 279.232 313.6 0 256.32-301.888 526.464-471.488 526.464-168.896 0-471.488-271.552-471.488-526.464 0-174.016 119.36-313.6 279.232-313.6 85.44 0 150.4 34.432 192.256 100.736 41.792-66.304 106.816-100.736 192.256-100.736z"
     fill="#5A5A5A"
     p-id="1455"
     id="path6"
     style="fill:#e68080;fill-opacity:1" />
  <path
     style="fill:#e68080;fill-opacity:1;stroke-width:0.84745765"
     d="M 93.023235,168.15348 C 71.069984,162.83788 39.829273,133.78825 27.5993,107.31807 19.147929,89.026187 18.739109,70.620634 26.426413,54.513338 34.126023,38.380254 52.094698,28.518886 68.615449,31.359621 c 11.109226,1.910226 17.558565,7.103025 23.352692,18.802833 4.008208,8.093583 6.489579,10.034238 10.416329,8.1465 2.33854,-1.124223 2.64331,-1.59619 6.62463,-10.258757 5.86682,-12.765045 18.76268,-19.084777 34.03992,-16.681574 16.76803,2.637715 29.92103,15.807433 34.66713,34.711215 2.23173,8.888981 1.33548,22.887091 -2.11754,33.072704 -4.91616,14.501588 -13.18904,27.297328 -26.77346,41.410768 -13.30571,13.82388 -29.99133,24.78312 -42.06646,27.62958 -6.42874,1.51543 -7.32464,1.51286 -13.735455,-0.0394 z"
     id="path4646"
     inkscape:connector-curvature="0"
     transform="scale(5.12)" />
  <path
     style="fill:#e68080;fill-opacity:1;stroke-width:0.84745765"
     d="M 86.675996,179.19884 C 59.859264,170.06414 29.644284,141.6507 16.639567,113.33827 11.075497,101.22479 9.2339268,93.826169 8.7843989,81.779661 8.3298603,69.598873 9.834569,60.761979 13.946324,51.464572 c 6.81061,-15.4 20.684179,-27.59876 35.893218,-31.560211 6.450383,-1.680112 19.85747,-1.632312 25.726982,0.09172 7.833515,2.300916 14.13527,6.206016 19.549137,12.114299 l 5.070959,5.534054 2.25152,-2.932388 c 8.38035,-10.914562 19.48863,-16.038483 34.81242,-16.057923 14.8591,-0.01885 25.91701,4.586277 36.65099,15.263513 5.17263,5.14528 7.22055,7.990955 10.38046,14.424075 5.86674,11.943837 6.91896,16.772047 6.82542,31.319303 -0.0694,10.789993 -0.35876,13.211912 -2.37368,19.865179 -8.85594,29.242397 -36.02131,60.861107 -64.49646,75.069657 -14.62104,7.29561 -25.678536,8.65066 -37.561294,4.60299 z m 22.788834,-11.04905 c 10.74864,-3.13317 24.13159,-11.90522 36.69112,-24.04973 21.02993,-20.33502 33.59538,-44.614139 33.56916,-64.862772 -0.0236,-18.190129 -8.01046,-34.217107 -21.3532,-42.848535 -6.77499,-4.382748 -13.82566,-6.13135 -23.21631,-5.757759 -6.50247,0.258691 -8.37257,0.695954 -13.24803,3.097639 -6.80733,3.353337 -10.43378,7.460904 -14.65703,16.60157 -3.4137,7.388511 -5.59162,9.090048 -9.496303,7.419173 -2.161051,-0.924746 -2.210898,-0.903828 -0.685483,0.287699 3.850136,3.00741 7.072626,0.749778 11.500706,-8.057231 4.40518,-8.761476 7.45666,-12.089374 14.07097,-15.345588 12.88967,-6.345565 29.32247,-3.36147 40.96384,7.438781 5.59962,5.195034 9.53859,11.467938 12.51568,19.931536 1.80274,5.125009 2.1923,7.777261 2.21992,15.114071 0.084,22.307855 -8.99468,41.466986 -29.81829,62.926716 -16.89574,17.41189 -35.81731,28.59871 -48.37228,28.59871 -11.642355,0 -28.159806,-9.09043 -44.127311,-24.28558 C 26.947667,116.69051 15.616784,87.10593 24.231517,61.354576 27.058673,52.90358 30.269419,47.877114 36.561606,42.051658 45.017439,34.223048 54.71929,30.756777 65.824424,31.596656 c 11.411795,0.863072 19.081089,6.26034 25.617358,18.028221 1.53848,2.769877 2.543938,4.08275 2.234362,2.917496 C 91.648008,44.908592 84.58594,36.55783 77.335071,33.219369 71.544573,30.553296 59.312477,29.633158 52.811019,31.37459 37.974301,35.348643 25.816454,48.821234 21.689473,65.861604 c -1.995068,8.237673 -1.415119,22.745475 1.246113,31.172294 2.561636,8.111452 8.478661,19.688312 14.244875,27.870602 6.392977,9.07167 20.057478,23.14243 28.985233,29.847 17.260238,12.9621 30.616831,17.09511 43.299136,13.39829 z"
     id="path4648"
     inkscape:connector-curvature="0"
     transform="scale(5.12)" />
  <path
     style="fill:#e68080;fill-opacity:1;stroke-width:0.84745765"
     d="M 86.949152,179.33931 C 72.779493,174.70355 58.831965,165.48796 44.470806,151.27244 30.240171,137.18614 21.179885,124.37505 15.026553,109.6388 9.6586283,96.783469 8.9806099,93.262987 9.0082381,78.389831 9.0316675,65.776907 9.1982486,64.357309 11.394892,58.050847 15.099724,47.414447 19.111249,40.968936 26.696507,33.465005 37.419541,22.856942 47.699543,18.635386 62.762795,18.654126 c 14.015146,0.01744 21.943506,3.182818 31.346806,12.515148 l 6.312989,6.265344 1.69459,-2.40375 c 2.55728,-3.62747 8.1128,-8.653494 12.27024,-11.100765 8.64853,-5.09094 24.72366,-6.851523 35.99873,-3.942659 17.95061,4.631094 32.37261,19.561155 38.81467,40.182048 1.73123,5.541639 1.97657,7.984516 1.91496,19.067796 -0.0626,11.265234 -0.33101,13.568109 -2.35832,20.235881 -9.03865,29.727841 -35.79187,60.853901 -64.89232,75.499011 -13.30297,6.69486 -25.419717,8.12827 -36.915988,4.36713 z M 114.0678,166.47693 c 9.9297,-4.04636 22.6492,-13.19028 33.47457,-24.06451 14.77562,-14.84231 23.3899,-27.96834 28.94654,-44.107335 2.58374,-7.504339 2.77036,-8.798702 2.74911,-19.067797 -0.0199,-9.634524 -0.30616,-11.867673 -2.28092,-17.79661 -5.25247,-15.769807 -16.99786,-27.13748 -31.18227,-30.179491 -2.43911,-0.523095 -7.52016,-0.78305 -11.29123,-0.577677 -13.15657,0.716509 -21.47742,6.729424 -27.19117,19.649214 -2.9401,6.648088 -1.89127,5.932495 1.67013,-1.139487 4.01602,-7.974765 7.21064,-11.375175 13.67787,-14.558981 12.57068,-6.188526 28.92999,-3.458844 40.25986,6.717679 17.11329,15.371212 20.39052,40.559815 8.71272,66.965395 -5.92604,13.39983 -23.73919,34.52896 -38.40251,45.55127 -12.38854,9.31237 -24.63648,14.77547 -33.12575,14.77547 -12.944616,0 -31.896368,-11.36805 -49.394743,-29.62902 C 37.319223,125.06156 28.944929,111.93047 24.18694,97.457627 22.127719,91.193892 21.810725,88.872392 21.75686,79.661017 21.687794,67.84995 23.426824,60.283649 28.100614,52.06016 30.959819,47.029414 38.727062,39.372458 44.152542,36.236148 53.408766,30.8854 66.820401,29.877032 76.031014,33.839331 c 5.157895,2.218866 11.155616,8.102511 14.746229,14.465754 1.446553,2.563559 2.367723,3.707627 2.047062,2.542373 -1.808857,-6.5731 -9.376247,-14.934171 -16.280841,-17.9884 -5.69283,-2.518211 -17.224427,-3.037185 -24.389659,-1.097647 -14.626213,3.959131 -26.705517,17.770775 -30.514284,34.890458 -5.18082,23.286791 5.43309,49.903501 29.716411,74.520431 13.571166,13.75761 25.047511,21.81039 37.50452,26.31638 7.775819,2.81269 16.701358,2.45445 25.207348,-1.01175 z M 103.10074,58.004097 c 1.56594,-1.25458 1.54919,-1.271288 -0.34839,-0.347545 -1.09638,0.533715 -2.71767,0.780996 -3.602867,0.549512 -0.885195,-0.231483 -1.395738,-0.07508 -1.134534,0.347545 0.732313,1.184919 3.262081,0.911582 5.085791,-0.549512 z"
     id="path4650"
     inkscape:connector-curvature="0"
     transform="scale(5.12)" />
  <path
     style="fill:#e68080;fill-opacity:1;stroke-width:0.84745765"
     d="M 86.949152,179.33931 C 72.305984,174.54864 58.732734,165.4754 43.723839,150.44471 31.007884,137.71029 23.821602,127.9861 17.404552,114.83051 10.347963,100.3638 8.9880315,94.546097 8.985317,78.813559 8.9833492,67.409108 9.2446053,64.840316 10.96768,59.322034 14.352503,48.481873 18.363393,41.841574 26.331877,33.885569 37.476392,22.758508 47.369125,18.625338 62.762795,18.664785 c 14.353272,0.03678 21.66638,2.926065 31.309917,12.370017 l 6.276088,6.146208 1.72043,-2.276946 c 5.48725,-7.262279 13.57909,-12.716063 22.19768,-14.960921 6.431,-1.675062 19.77345,-1.677011 26.19724,-0.0038 17.70838,4.612448 32.27129,19.630343 38.60044,39.806446 2.32414,7.408888 3.18666,22.247732 1.77733,30.577352 -3.47168,20.518919 -15.16162,40.977649 -34.35295,60.121599 -25.73266,25.66913 -49.37358,35.49221 -69.539818,28.8946 z M 110.85918,167.339 c 9.9974,-3.35602 19.80144,-9.5414 31.60367,-19.93879 8.86114,-7.80639 21.04718,-22.57866 25.81898,-31.29852 1.49843,-2.7382 -1.13855,0.64898 -5.56569,7.14906 -9.64395,14.15958 -29.0402,32.00549 -42.45437,39.06096 -8.06965,4.24442 -12.09563,5.55531 -19.32957,6.29385 l -6.355929,0.6489 4.935322,0.11853 c 3.302697,0.0793 7.056547,-0.59353 11.347587,-2.03399 z m -17.977824,0.45761 c -0.932204,-0.40058 -2.26695,-0.72833 -2.966102,-0.72833 -0.801253,0 -0.644609,0.26925 0.423729,0.72833 0.932203,0.40058 2.266949,0.72833 2.966101,0.72833 0.801255,0 0.644611,-0.26925 -0.423728,-0.72833 z M 81.440678,163.1192 C 61.977633,152.92217 40.549875,131.2279 29.559977,110.59322 c -1.737699,-3.26271 -3.164123,-5.55085 -3.16983,-5.08475 -0.01762,1.43934 6.701032,13.26708 10.817181,19.04292 11.849344,16.62718 31.753545,34.1953 46.142015,40.72652 6.560534,2.97795 5.408315,1.67479 -1.908665,-2.15871 z m 92.354572,-57.99006 c 3.69823,-8.9683 5.05487,-14.863392 5.50261,-23.910871 l 0.39161,-7.913184 -1.14832,9.322034 c -1.37772,11.184399 -2.21804,14.459639 -6.02701,23.491061 -1.60247,3.79962 -2.55441,6.54921 -2.11542,6.11022 0.439,-0.439 1.96743,-3.63366 3.39653,-7.09926 z M 25.414312,100.94162 c -0.522094,-1.49768 -1.097567,-2.57475 -1.278828,-2.393488 -0.181262,0.181262 0.0976,1.554938 0.619694,3.052618 0.522095,1.49768 1.097567,2.57475 1.278829,2.39349 0.181262,-0.18126 -0.0976,-1.55494 -0.619695,-3.05262 z m -2.824845,-9.46654 c -0.650944,-3.001972 -1.213853,-4.578274 -1.250908,-3.502894 -0.07454,2.16322 1.673035,9.722435 2.139774,9.255695 0.162069,-0.162068 -0.237921,-2.750829 -0.888866,-5.752801 z m 0.413752,-26.644572 c 0.589368,-2.330508 1.945204,-6.239406 3.012968,-8.68644 1.067765,-2.447034 1.750713,-4.449153 1.517662,-4.449153 -0.912653,0 -4.801794,10.037871 -5.910208,15.254238 -0.643765,3.029661 -1.120553,8.559322 -1.059529,12.288135 l 0.110955,6.779661 0.628288,-8.474576 c 0.345558,-4.661017 1.110497,-10.381356 1.699864,-12.711865 z m 154.605141,-1.06925 c -4.57938,-15.856275 -18.12628,-30.044294 -30.48972,-31.932645 -2.86459,-0.437529 -2.63637,-0.266337 1.47293,1.104856 9.44957,3.153145 17.46423,9.814601 23.08241,19.185175 3.23624,5.397725 6.29335,14.103682 6.50384,18.52147 0.12272,2.575685 0.13884,2.586558 0.48098,0.324534 0.1947,-1.28724 -0.278,-4.528765 -1.05044,-7.20339 z m -76.90567,-4.95123 c -0.28161,-0.281603 -1.012546,-0.31171 -1.624301,-0.06691 -0.676042,0.270531 -0.475237,0.471342 0.512009,0.512006 0.893352,0.0368 1.393892,-0.163498 1.112292,-0.445102 z m 7.85663,-9.012711 c 0,-1.692605 6.02379,-9.950409 8.80709,-12.073337 1.66307,-1.268481 5.22411,-3.211164 7.91342,-4.317074 5.57237,-2.291492 5.03263,-2.718704 -0.88666,-0.701798 -6.79192,2.314236 -14.67562,10.728181 -17.52744,18.706294 -0.80015,2.238468 -0.7717,2.290062 0.41746,0.757132 0.70188,-0.904764 1.27613,-1.971811 1.27613,-2.371217 z M 91.794728,48.369275 C 90.499073,44.895817 85.591786,38.936919 81.700175,36.111507 77.651939,33.172381 70.868204,30.62897 69.834455,31.66272 c -0.297369,0.297368 0.190262,0.544395 1.083623,0.548949 5.231487,0.02666 15.831334,8.304495 19.352011,15.112734 1.526809,2.952523 2.479851,3.605666 1.524639,1.044872 z M 43.398078,36.617038 c 5.106934,-3.109439 10.128754,-4.576169 18.127345,-5.29448 l 7.627119,-0.68495 -8.170779,0.236263 c -7.101627,0.205348 -8.914372,0.584232 -13.853537,2.895547 -6.778651,3.172113 -11.239189,6.568157 -14.969979,11.397439 -2.430478,3.146107 -2.113567,2.963673 2.714499,-1.562641 3.006431,-2.818528 6.84283,-5.962758 8.525332,-6.987178 z m 97.152772,-5.878452 c -1.74788,-0.182834 -4.60805,-0.182834 -6.35594,0 -1.74788,0.182834 -0.31779,0.332426 3.17797,0.332426 3.49576,0 4.92585,-0.149592 3.17797,-0.332426 z"
     id="path4652"
     inkscape:connector-curvature="0"
     transform="scale(5.12)" />
  <path
     style="fill:#e68080;fill-opacity:1;stroke-width:0.84745765"
     d="M 88.644067,180.04888 C 82.040778,178.24818 68.177697,170.98775 60.315479,165.21251 43.988997,153.2198 27.403095,134.28492 18.936746,117.97351 10.497038,101.71343 8.0310749,91.227562 8.7807653,74.787843 9.577392,57.318869 14.578016,45.65601 26.349991,33.811478 c 11.148484,-11.217198 20.71552,-15.16741 36.73401,-15.16741 13.992809,0 22.299741,3.433093 32.00777,13.228184 l 5.226179,5.273055 3.19758,-4.045236 c 3.78354,-4.78654 11.726,-10.305492 17.95673,-12.477533 3.52555,-1.229012 6.94562,-1.548574 16.32435,-1.525304 10.81533,0.02683 12.36834,0.228842 17.5636,2.284572 13.05504,5.165797 22.87505,14.549332 29.50591,28.194465 5.52102,11.361266 7.1204,19.453071 6.53306,33.052984 -0.37763,8.744092 -0.87622,11.516657 -3.45916,19.235655 -5.94325,17.76112 -15.31222,32.39033 -30.6233,47.81683 -20.67225,20.82807 -40.62051,31.78409 -57.53311,31.59841 -3.796237,-0.0417 -8.809034,-0.59574 -11.139543,-1.23127 z m 13.781073,-11.13963 c -0.81025,-0.21211 -2.33567,-0.2198 -3.389835,-0.0171 -1.054161,0.2027 -0.391238,0.37625 1.473165,0.38566 1.86441,0.009 2.72691,-0.15645 1.91667,-0.36856 z m 15.03249,-4.4055 c 15.46831,-7.46884 32.21104,-22.08076 44.53619,-38.86816 4.42773,-6.03075 2.20154,-4.0147 -2.85113,2.582 -2.60499,3.40105 -8.66421,10.00107 -13.46494,14.66675 -12.74006,12.38164 -24.47639,20.22308 -36.27097,24.23389 -3.29813,1.12154 -3.79372,1.44963 -1.69492,1.12203 1.63136,-0.25462 6.01695,-1.93605 9.74577,-3.73651 z m -30.508478,1.59794 c -0.288067,-0.4661 -0.977946,-0.84161 -1.533065,-0.83448 -0.606454,0.008 -0.501928,0.34087 0.261879,0.83448 1.62807,1.05215 1.921445,1.05215 1.271186,0 z m -10.132885,-5.50927 c -4.083978,-2.564 -9.825449,-6.57159 -12.758823,-8.90574 -7.718637,-6.14191 -21.312743,-20.67562 -26.61163,-28.45099 -4.416376,-6.48042 -7.062535,-9.87822 -5.555862,-7.134 6.431928,11.71496 20.726826,27.60823 34.888198,38.78919 4.013225,3.1686 15.552178,10.31698 16.698623,10.3448 0.4207,0.0102 -2.576527,-2.07926 -6.660506,-4.64326 z m 91.065093,-43.64327 c 0.49889,-0.9322 0.71641,-1.69491 0.48336,-1.69491 -0.23305,0 -0.83192,0.76271 -1.33082,1.69491 -0.4989,0.93221 -0.71642,1.69492 -0.48337,1.69492 0.23305,0 0.83193,-0.76271 1.33083,-1.69492 z M 29.574912,110.61181 c -1.014056,-2.08723 -1.989093,-3.64961 -2.16675,-3.47195 -0.383378,0.38338 3.040902,7.26692 3.614996,7.26692 0.21752,0 -0.434191,-1.70774 -1.448246,-3.79497 z M 174.63506,102.9661 c 0,-0.4661 -0.36967,-0.27542 -0.8215,0.42373 -0.45183,0.69915 -0.8215,1.65254 -0.8215,2.11864 0,0.46611 0.36967,0.27543 0.8215,-0.42372 0.45183,-0.69916 0.8215,-1.65255 0.8215,-2.11865 z M 25.611926,101.97034 c -0.999021,-1.71798 -1.240265,-1.1681 -0.422487,0.963 0.290633,0.75737 0.706945,1.19852 0.925139,0.98033 0.218194,-0.2182 -0.008,-1.0927 -0.502652,-1.94333 z M 178.46871,87.771876 c 0.35718,-5.102576 0.35443,-5.110016 -0.33644,-0.907469 -0.38311,2.330508 -0.9414,5.572034 -1.24063,7.20339 -0.46909,2.55734 -0.42272,2.6824 0.33644,0.907469 0.48428,-1.132247 1.04256,-4.373773 1.24063,-7.20339 z M 22.679899,92.161017 c -0.235096,-0.582627 -0.427446,-0.105932 -0.427446,1.059322 0,1.165254 0.19235,1.641949 0.427446,1.059322 0.235095,-0.582627 0.235095,-1.536017 0,-2.118644 z m -0.829803,-3.336864 c -0.27053,-0.676045 -0.471341,-0.475234 -0.512006,0.512005 -0.0368,0.893361 0.163499,1.393891 0.445102,1.112289 0.281603,-0.281604 0.31171,-1.012536 0.06691,-1.624294 z m -0.81332,-13.612289 c -0.187989,-1.51483 -0.341798,-0.275423 -0.341798,2.754238 0,3.029661 0.153809,4.269067 0.341798,2.754237 0.187988,-1.514831 0.187988,-3.993644 0,-5.508475 z m 158.422784,3.389831 c -0.23509,-0.582627 -0.42745,-0.105932 -0.42745,1.059322 0,1.165254 0.19236,1.641949 0.42745,1.059322 0.23509,-0.582627 0.23509,-1.536017 0,-2.118644 z M 21.858467,68.024603 c -0.214868,-0.824549 -0.4048,-0.355111 -0.42207,1.043194 -0.01727,1.398305 0.15853,2.072935 0.390668,1.499179 0.232138,-0.573757 0.246269,-1.717824 0.0314,-2.542373 z m 156.753633,0.4076 c -0.23509,-0.582627 -0.42745,-0.105932 -0.42745,1.059322 0,1.165255 0.19236,1.64195 0.42745,1.059322 0.23509,-0.582627 0.23509,-1.536016 0,-2.118644 z m -0.8298,-3.336864 c -0.27053,-0.676045 -0.47134,-0.475234 -0.512,0.512006 -0.0368,0.893361 0.16349,1.393891 0.4451,1.112288 0.2816,-0.281603 0.3117,-1.012536 0.0669,-1.624294 z M 22.697554,64.247881 c -0.270531,-0.676045 -0.471342,-0.475234 -0.512006,0.512006 -0.0368,0.893361 0.163498,1.393891 0.445102,1.112288 0.281602,-0.281603 0.31171,-1.012535 0.06691,-1.624294 z M 176.35192,60.413285 c -0.92339,-1.440076 -0.94731,-1.438227 -0.48371,0.03738 0.26825,0.8538 0.51783,1.997868 0.55463,2.542373 0.0483,0.714542 0.18287,0.704141 0.4837,-0.03738 0.22925,-0.565066 -0.0203,-1.709134 -0.55462,-2.542373 z M 25.48252,57.20339 c 0,-0.466102 -0.369676,-0.275424 -0.821503,0.423729 -0.451828,0.699152 -0.821504,1.652542 -0.821504,2.118644 0,0.466101 0.369676,0.275423 0.821504,-0.423729 0.451827,-0.699153 0.821503,-1.652542 0.821503,-2.118644 z m 148.37294,-2.883979 c -2.40364,-4.711507 -3.02808,-4.43078 -0.71851,0.323013 1.01406,2.087231 1.98909,3.649611 2.16675,3.471954 0.17766,-0.177658 -0.47406,-1.885392 -1.44824,-3.794967 z M 26.679285,54.617002 c 0.289404,-0.754174 0.14733,-1.094341 -0.33306,-0.797444 -0.460763,0.284767 -0.837751,0.876608 -0.837751,1.315202 0,1.21901 0.607429,0.950392 1.170811,-0.517758 z M 90.853918,46.822034 C 88.030811,41.3453 83.316419,36.663325 77.899028,33.956223 c -2.862003,-1.430159 -6.000783,-2.57478 -6.975064,-2.543599 -1.047193,0.03351 -0.385523,0.494993 1.618409,1.128753 1.864406,0.589634 4.545903,1.674891 5.95888,2.411681 3.140248,1.637467 9.883992,8.726457 11.768836,12.371345 C 91.031073,48.795981 91.84233,50 92.072881,50 92.30344,50 91.754906,48.569915 90.853918,46.822034 Z m 18.028762,1.862764 c 0.2894,-0.754173 0.14733,-1.09434 -0.33306,-0.797443 -0.46076,0.284767 -0.83776,0.876608 -0.83776,1.315202 0,1.21901 0.60744,0.950391 1.17082,-0.517759 z m 60.84263,-1.017859 C 164.76066,40.694725 154.81699,33.607765 147.54237,31.856914 l -2.11864,-0.509915 2.11864,0.967863 c 1.16526,0.532324 4.2161,1.931757 6.77966,3.109852 3.09041,1.420211 6.65998,4.210729 10.59322,8.281285 3.26272,3.376612 6.05351,6.174104 6.20178,6.216648 0.14827,0.04254 -0.478,-0.972524 -1.39172,-2.255708 z M 43.133641,36.691809 c 2.003164,-1.184962 5.816723,-2.849784 8.474576,-3.699603 2.657854,-0.849819 4.179394,-1.565634 3.3812,-1.5907 -5.18567,-0.162846 -18.868076,8.045808 -22.723266,13.632647 -1.484995,2.152015 -0.842758,1.744178 2.630333,-1.670332 2.527272,-2.484644 6.233994,-5.487049 8.237157,-6.672012 z m 72.169789,2.722579 2.93056,-3.397439 -2.9447,2.728844 c -1.61959,1.500865 -3.62232,3.979678 -4.45053,5.508475 -1.45252,2.681246 -1.45202,2.704911 0.0142,0.668595 0.83599,-1.16107 2.83873,-3.639883 4.45053,-5.508475 z m 6.81521,-5.151988 c 0,-0.233051 -0.76271,-0.01553 -1.69491,0.483363 -0.9322,0.4989 -1.69492,1.097769 -1.69492,1.33082 0,0.233051 0.76272,0.01553 1.69492,-0.483363 0.9322,-0.4989 1.69491,-1.097769 1.69491,-1.33082 z m 3.38983,-1.211553 c 0.69916,-0.451827 0.88983,-0.821503 0.42373,-0.821503 -0.4661,0 -1.41949,0.369676 -2.11864,0.821503 -0.69915,0.451828 -0.88983,0.821504 -0.42373,0.821504 0.4661,0 1.41949,-0.369676 2.11864,-0.821504 z m -62.076267,-2.30191 c -1.28178,-0.194173 -3.379237,-0.194173 -4.661017,0 -1.28178,0.194173 -0.233051,0.353043 2.330509,0.353043 2.563559,0 3.612288,-0.15887 2.330508,-0.353043 z m 75.423727,0.02282 c -0.81568,-0.213158 -2.15042,-0.213158 -2.9661,0 -0.81568,0.21316 -0.1483,0.387562 1.48305,0.387562 1.63136,0 2.29873,-0.174402 1.48305,-0.387562 z"
     id="path4654"
     inkscape:connector-curvature="0"
     transform="scale(5.12)" />
  <path
     style="fill:#e68080;fill-opacity:1;stroke-width:0.84745765"
     d="M 89.067796,180.13797 C 59.553968,171.88483 24.242604,136.66021 12.555442,103.81356 9.3474423,94.797509 8.2465939,86.159003 8.7982111,74.330062 9.6053214,57.022301 14.523449,45.677077 26.331877,33.883089 37.724389,22.504508 46.894067,18.644068 62.529022,18.644068 c 14.492795,0 21.72912,2.852447 31.793851,12.532646 l 5.678807,5.461841 5.34495,-5.395548 c 9.08148,-9.167467 17.80422,-12.598939 32.02625,-12.598939 15.2395,0 25.32305,4.146504 36.10239,14.84584 5.81911,5.775918 7.52753,8.166133 11.2128,15.687544 5.74601,11.727274 7.30332,19.513712 6.67891,33.393971 -0.48998,10.892212 -1.83247,16.675018 -6.38851,27.518717 -9.45083,22.49367 -31.22804,47.198 -53.74122,60.96473 -14.987,9.16449 -30.17757,12.43646 -42.169454,9.0831 z m 22.881354,-13.18882 c 0.69915,-0.45183 0.88983,-0.8215 0.42373,-0.8215 -0.4661,0 -1.41949,0.36967 -2.11864,0.8215 -0.69916,0.45183 -0.88983,0.8215 -0.42373,0.8215 0.4661,0 1.41949,-0.36967 2.11864,-0.8215 z m 6.80783,-2.98038 c 2.31502,-1.1731 4.20912,-2.32359 4.20912,-2.55664 0,-0.37965 -8.38692,3.58 -9.25141,4.36779 -0.99984,0.91113 1.30114,0.0847 5.04229,-1.81115 z m -38.234381,-0.74286 c -0.19421,-0.18338 -3.958266,-2.73845 -8.364571,-5.67794 -9.241261,-6.16494 -24.108357,-20.1614 -31.070163,-29.25066 -5.403247,-7.05441 -6.961857,-8.34068 -2.711844,-2.23799 5.415324,7.77599 25.207662,26.7919 33.623504,32.30451 6.689031,4.38149 10.036477,6.29108 8.523074,4.86208 z m 46.680791,-4.38724 c 0,-0.23305 -0.76271,-0.0155 -1.69492,0.48336 -0.9322,0.4989 -1.69491,1.09778 -1.69491,1.33083 0,0.23305 0.76271,0.0155 1.69491,-0.48337 0.93221,-0.4989 1.69492,-1.09777 1.69492,-1.33082 z m 9.57217,-7.05627 c 0.56158,-0.69582 -1.17175,0.3804 -3.85183,2.39161 -2.68009,2.01121 -4.87288,3.8253 -4.87288,4.03131 0,0.57895 7.57344,-4.99644 8.72471,-6.42292 z m 19.24139,-18.50454 c 0,-0.61205 -1.08631,0.42144 -9.33718,8.88316 l -8.88316,9.11017 9.11017,-8.88316 c 5.01059,-4.88575 9.11017,-8.98533 9.11017,-9.11017 z m 2.11864,-2.76939 c 0.84364,-0.9322 1.34321,-1.69491 1.11016,-1.69491 -0.23306,0 -1.11398,0.76271 -1.95761,1.69491 -0.84364,0.93221 -1.34321,1.69492 -1.11016,1.69492 0.23305,0 1.11398,-0.76271 1.95761,-1.69492 z M 29.589933,110.58964 c -0.531823,-1.16722 -1.126579,-1.9626 -1.32168,-1.7675 -0.395803,0.39581 1.322435,3.88972 1.912886,3.88972 0.20666,0 -0.05938,-0.955 -0.591206,-2.12222 z M 174.63506,102.9661 c 0,-0.4661 -0.36967,-0.27542 -0.8215,0.42373 -0.45183,0.69915 -0.8215,1.65254 -0.8215,2.11864 0,0.46611 0.36967,0.27543 0.8215,-0.42372 0.45183,-0.69916 0.8215,-1.65255 0.8215,-2.11865 z m 3.14724,-11.599575 c -0.27053,-0.676044 -0.47134,-0.475233 -0.512,0.512006 -0.0368,0.893361 0.16349,1.393891 0.4451,1.112288 0.2816,-0.281603 0.3117,-1.012535 0.0669,-1.624294 z m 0.8298,-5.137711 c -0.23509,-0.582628 -0.42745,-0.105933 -0.42745,1.059322 0,1.165254 0.19236,1.641949 0.42745,1.059322 0.23509,-0.582627 0.23509,-1.536017 0,-2.118644 z M 21.007903,76.483051 c -0.213159,-0.815678 -0.387562,-0.148305 -0.387562,1.483051 0,1.631356 0.174403,2.298729 0.387562,1.483051 0.213159,-0.815678 0.213159,-2.150424 0,-2.966102 z m 0.842193,-7.997882 c -0.27053,-0.676044 -0.471341,-0.475233 -0.512006,0.512006 -0.0368,0.893361 0.163499,1.393891 0.445102,1.112289 0.281603,-0.281604 0.31171,-1.012536 0.06691,-1.624295 z M 173.81356,54.237288 c -0.95115,-1.864407 -1.92004,-3.38983 -2.15309,-3.38983 -0.23306,0 0.35448,1.525423 1.30563,3.38983 0.95115,1.864407 1.92004,3.389831 2.15309,3.389831 0.23306,0 -0.35448,-1.525424 -1.30563,-3.389831 z M 91.101684,47.245763 C 87.426941,40.848651 79.026771,32.972374 75.998775,33.084778 c -0.502716,0.01866 0.230038,0.633946 1.628343,1.367299 3.271258,1.715639 9.363216,7.56392 11.56122,11.09877 1.594839,2.564837 3.260797,4.04061 1.913346,1.694916 z M 165.73086,43.17899 c -3.95204,-4.020827 -11.13491,-9.280685 -12.67372,-9.280685 -0.38104,0 1.55912,1.476575 4.31147,3.281276 2.75235,1.804702 6.51175,4.85555 8.35423,6.779661 1.84247,1.924112 3.54424,3.498385 3.7817,3.498385 0.23746,0 -1.4607,-1.925386 -3.77368,-4.278637 z M 40.338983,38.494009 c 1.398305,-1.212138 1.779661,-1.80349 0.847457,-1.314116 -0.932203,0.489375 -3.220339,2.270997 -5.084745,3.959161 -3.787088,3.429094 -0.152404,1.160213 4.237288,-2.645045 z m 74.999997,0.912771 c 1.09471,-1.165255 1.79969,-2.118644 1.56664,-2.118644 -0.23305,0 -1.31939,0.953389 -2.41409,2.118644 -1.09471,1.165254 -1.79969,2.118644 -1.56664,2.118644 0.23305,0 1.31939,-0.95339 2.41409,-2.118644 z M 54.322034,32.1566 c 0.699152,-0.04786 0.846976,-0.261875 0.328497,-0.475587 -1.073623,-0.442538 -10.24213,2.812612 -10.894319,3.867876 -0.2357,0.381371 1.75917,-0.206299 4.433044,-1.305934 2.673875,-1.099635 5.433625,-2.038494 6.132778,-2.086355 z m 71.186436,0.894247 c 0.69916,-0.451827 0.88983,-0.821503 0.42373,-0.821503 -0.4661,0 -1.41949,0.369676 -2.11864,0.821503 -0.69915,0.451828 -0.88983,0.821504 -0.42373,0.821504 0.4661,0 1.41949,-0.369676 2.11864,-0.821504 z m 25.42373,0 c -0.69915,-0.451827 -1.65254,-0.821503 -2.11864,-0.821503 -0.4661,0 -0.27542,0.369676 0.42373,0.821503 0.69915,0.451828 1.65254,0.821504 2.11864,0.821504 0.4661,0 0.27543,-0.369676 -0.42373,-0.821504 z"
     id="path4656"
     inkscape:connector-curvature="0"
     transform="scale(5.12)" />
  <path
     style="fill:#e68080;fill-opacity:1;stroke-width:0.84745765"
     d="M 88.388818,180.0807 C 81.915973,178.27306 69.368412,171.78742 61.599957,166.23398 57.912137,163.59766 50.727716,157.45751 45.634578,152.58919 29.614124,137.27592 18.197438,120.08512 11.772448,101.60093 9.0724092,93.833138 9.0064712,93.301736 8.9975025,79.237288 8.9870317,62.817042 9.7372958,59.252206 15.596749,47.881356 18.206722,42.816444 20.920127,39.275925 26.324831,33.883089 37.905343,22.328003 46.728021,18.644068 62.820845,18.644068 c 14.425666,0 21.583858,2.842831 31.453155,12.491419 l 5.629923,5.504028 5.387027,-5.410823 c 9.04395,-9.083916 17.88835,-12.584624 31.79454,-12.584624 9.9833,0 15.31049,1.118151 22.88455,4.803353 13.22835,6.436326 24.50991,20.484034 29.4911,36.722071 2.22789,7.262664 2.70494,24.280954 0.92722,33.077566 -4.00653,19.825232 -16.82704,41.064622 -35.79235,59.296202 -13.8722,13.33551 -27.28527,22.19493 -40.52821,26.76914 -5.79017,1.99996 -19.770809,2.41826 -25.678982,0.7683 z m 33.659212,-17.90735 c 1.16298,-1.01751 -1.59538,-0.0725 -2.94538,1.009 -1.55111,1.24268 -1.52407,1.26033 0.47362,0.30893 1.16526,-0.55495 2.27754,-1.14802 2.47176,-1.31793 z m -43.149725,0.1446 c 0,-0.21665 -0.858051,-0.80972 -1.90678,-1.31793 -1.831039,-0.88733 -1.841436,-0.87168 -0.261754,0.3939 1.729035,1.38525 2.168534,1.57252 2.168534,0.92403 z m 48.305085,-3.47928 c 0,-0.23305 -0.76271,-0.0155 -1.69492,0.48336 -0.9322,0.4989 -1.69491,1.09778 -1.69491,1.33083 0,0.23305 0.76271,0.0155 1.69491,-0.48337 0.93221,-0.4989 1.69492,-1.09777 1.69492,-1.33082 z m -55.084746,-0.73012 c 0,-0.2013 -1.239407,-1.18621 -2.754238,-2.18868 l -2.754237,-1.82266 2.542373,2.18448 c 2.607231,2.24019 2.966102,2.46123 2.966102,1.82686 z m 63.667426,-5.35431 c 1.05412,-1.34412 1.02415,-1.3741 -0.31997,-0.31997 -0.81568,0.6397 -1.48305,1.30708 -1.48305,1.48305 0,0.69749 0.69592,0.24857 1.80302,-1.16308 z m -70.447087,0.31562 c 0,-0.17597 -0.667373,-0.84334 -1.483051,-1.48305 -1.344115,-1.05412 -1.37409,-1.02415 -0.319962,0.31997 1.107092,1.41165 1.803013,1.86058 1.803013,1.16308 z m -5.932204,-4.99431 c 0,-0.12624 -3.527542,-3.65379 -7.838983,-7.83898 l -7.838983,-7.60945 7.60945,7.83898 c 7.067487,7.28067 8.068516,8.22475 8.068516,7.60945 z m 93.220341,-11.21114 c 1.58117,-1.63136 2.68418,-2.9661 2.45113,-2.9661 -0.23306,0 -1.71742,1.33474 -3.29859,2.9661 -1.58117,1.63135 -2.68418,2.9661 -2.45113,2.9661 0.23305,0 1.71742,-1.33475 3.29859,-2.9661 z M 44.152542,131.92738 c 0,-0.1518 -1.048729,-1.20052 -2.330508,-2.33051 l -2.330509,-2.0545 2.054503,2.33051 c 1.920244,2.17821 2.606514,2.71915 2.606514,2.0545 z m 114.514878,-2.0545 c 1.05413,-1.34412 1.02416,-1.37409 -0.31996,-0.31996 -0.81568,0.6397 -1.48305,1.30707 -1.48305,1.48305 0,0.69749 0.69592,0.24856 1.80301,-1.16309 z m -118.752166,-3.0742 c 0,-0.17598 -0.667373,-0.84335 -1.483051,-1.48305 -1.344115,-1.05413 -1.37409,-1.02416 -0.319962,0.31996 1.107093,1.41166 1.803013,1.86058 1.803013,1.16309 z M 174.66102,56.094178 c 0,-0.377016 -0.57823,-1.425745 -1.28496,-2.330509 -1.19153,-1.525413 -1.21245,-1.475571 -0.2877,0.685484 0.9978,2.331771 1.57266,2.933082 1.57266,1.645025 z M 90.204228,45.762798 c -0.825972,-1.398257 -3.408639,-4.353766 -5.739262,-6.567796 l -4.237496,-4.02551 4.288942,4.683404 c 2.358917,2.575873 4.742764,5.531381 5.297437,6.567796 0.554673,1.036416 1.207317,1.884393 1.45032,1.884393 0.243004,0 -0.23397,-1.144029 -1.059941,-2.542287 z M 165.33898,42.79661 c -2.0585,-2.097457 -3.9334,-3.813559 -4.16645,-3.813559 -0.23306,0 1.2605,1.716102 3.319,3.813559 2.0585,2.097458 3.9334,3.813559 4.16645,3.813559 0.23305,0 -1.2605,-1.716101 -3.319,-3.813559 z M 38.644067,39.830508 c 0.843633,-0.932203 1.3432,-1.694915 1.110149,-1.694915 -0.233051,0 -1.113974,0.762712 -1.957606,1.694915 -0.843632,0.932204 -1.343199,1.694916 -1.110148,1.694916 0.23305,0 1.113973,-0.762712 1.957605,-1.694916 z m 76.803013,-0.635593 c 1.05413,-1.344115 1.02416,-1.37409 -0.31996,-0.319962 -1.41165,1.107093 -1.86058,1.803013 -1.16309,1.803013 0.17598,0 0.84335,-0.667373 1.48305,-1.483051 z M 46.694915,34.745763 c 0.699152,-0.451827 0.88983,-0.821504 0.423729,-0.821504 -0.466102,0 -1.419492,0.369677 -2.118644,0.821504 -0.699153,0.451827 -0.889831,0.821503 -0.423729,0.821503 0.466102,0 1.419491,-0.369676 2.118644,-0.821503 z m 33.050847,0.453545 c 0,-0.216651 -0.85805,-0.809723 -1.906779,-1.317937 -1.831039,-0.887322 -1.841437,-0.871674 -0.261755,0.393912 1.729036,1.385244 2.168534,1.572517 2.168534,0.924025 z M 150.9322,33.050847 c -0.69915,-0.451827 -1.65254,-0.821503 -2.11864,-0.821503 -0.4661,0 -0.27542,0.369676 0.42373,0.821503 0.69915,0.451828 1.65254,0.821504 2.11864,0.821504 0.4661,0 0.27543,-0.369676 -0.42373,-0.821504 z"
     id="path4658"
     inkscape:connector-curvature="0"
     transform="scale(5.12)" />
  <path
     style="fill:#e68080;fill-opacity:1;stroke-width:0.84745765"
     d="M 87.175547,179.71164 C 72.725792,175.0923 56.676134,164.19392 41.968321,149.01408 30.495573,137.17313 24.054833,128.38935 17.976656,116.29462 10.742411,101.89948 8.5887515,93.301025 8.5887515,78.813559 c 0,-12.601505 1.5519365,-19.739038 6.4488175,-29.658844 3.304084,-6.693215 5.198247,-9.26471 11.247477,-15.269454 11.651212,-11.565527 20.462427,-15.241193 36.535799,-15.241193 14.437261,0 21.387403,2.700178 31.051468,12.063713 l 6.075704,5.886762 5.364973,-5.388337 c 9.18321,-9.223205 17.83374,-12.569359 32.44981,-12.55208 4.74159,0.0056 10.56906,0.558415 13.163,1.248679 19.49159,5.186837 36.06181,24.520734 39.88709,46.539679 1.42744,8.216565 0.5761,24.656458 -1.69387,32.710058 -2.6159,9.280878 -10.96786,25.508598 -17.88268,34.745768 -16.94916,22.64155 -41.12361,41.26018 -59.88428,46.12156 -6.934,1.79678 -18.03456,1.65526 -24.176513,-0.30823 z m 65.875303,-43.27096 c 0.84363,-0.93221 1.3432,-1.69492 1.11015,-1.69492 -0.23305,0 -1.11397,0.76271 -1.95761,1.69492 -0.84364,0.9322 -1.3432,1.69491 -1.11015,1.69491 0.23305,0 1.11397,-0.76271 1.95761,-1.69491 z M 43.305084,131.03597 c 0,-0.17598 -0.667372,-0.84335 -1.48305,-1.48305 -1.344116,-1.05413 -1.37409,-1.02416 -0.319962,0.31996 1.107092,1.41165 1.803012,1.86058 1.803012,1.16309 z M 90.020413,45.536723 c -0.836962,-0.830735 -0.934305,-0.733392 -0.474402,0.474402 0.318246,0.835781 0.792112,1.30612 1.053033,1.045198 0.260921,-0.260921 5.37e-4,-0.944741 -0.578631,-1.5196 z m 77.860947,-0.0315 c 0,-0.141617 -1.43009,-1.571701 -3.17797,-3.177966 l -3.17797,-2.92048 2.92049,3.177966 c 2.71831,2.957982 3.43545,3.567616 3.43545,2.92048 z M 89.067796,43.775414 c 0,-0.160811 -0.858051,-1.018862 -1.906779,-1.90678 l -1.90678,-1.614397 1.614397,1.90678 c 1.517133,1.791902 2.199162,2.292577 2.199162,1.614397 z M 39.175894,39.194915 c 1.054128,-1.344115 1.024153,-1.37409 -0.319962,-0.319962 -1.411651,1.107093 -1.860576,1.803013 -1.163089,1.803013 0.17598,0 0.843352,-0.667373 1.483051,-1.483051 z m 7.965174,-5.132942 c -0.260921,-0.260921 -0.94474,-5.37e-4 -1.5196,0.57863 -0.830734,0.836963 -0.733392,0.934305 0.474403,0.474403 0.83578,-0.318247 1.306119,-0.792112 1.045197,-1.053033 z"
     id="path4660"
     inkscape:connector-curvature="0"
     transform="scale(5.12)" />
  <path
     style="fill:#e68080;fill-opacity:1;stroke-width:0.84745765"
     d="M 85.147193,178.93592 C 77.739134,176.35708 69.060489,171.65759 60.254237,165.45637 51.848627,159.53727 32.676767,139.8018 26.493325,130.70294 20.400759,121.73781 12.722846,106.22604 10.666986,98.728814 8.7965006,91.907603 8.0545139,73.089136 9.3599459,65.579314 11.548018,52.991882 18.133923,41.136077 28.02549,31.978003 38.645034,22.145932 47.783268,18.644068 62.820845,18.644068 c 14.418112,0 21.390238,2.702945 31.007282,12.020863 l 6.031517,5.843915 5.432996,-5.433004 c 9.15483,-9.154821 17.59727,-12.418347 32.08024,-12.400999 10.70809,0.01283 14.57315,0.822026 22.80342,4.774188 4.75623,2.283936 7.94025,4.686066 13.13559,9.909944 7.90675,7.950167 11.49522,13.625863 15.20364,24.046775 2.53497,7.12343 2.64278,7.975055 2.65655,20.984081 0.0159,15.044207 -0.81858,19.476727 -5.86659,31.160299 -6.91772,16.01103 -14.4355,26.60169 -29.64043,41.7559 -15.47409,15.42246 -30.52185,25.19612 -44.32977,28.79263 -8.01849,2.08855 -18.139121,1.6392 -26.188097,-1.16274 z"
     id="path4662"
     inkscape:connector-curvature="0"
     transform="scale(5.12)" />
</svg>
