<?xml version="1.0" encoding="UTF-8" standalone="no"?>
<svg
   xmlns:dc="http://purl.org/dc/elements/1.1/"
   xmlns:cc="http://creativecommons.org/ns#"
   xmlns:rdf="http://www.w3.org/1999/02/22-rdf-syntax-ns#"
   xmlns:svg="http://www.w3.org/2000/svg"
   xmlns="http://www.w3.org/2000/svg"
   xmlns:sodipodi="http://sodipodi.sourceforge.net/DTD/sodipodi-0.dtd"
   xmlns:inkscape="http://www.inkscape.org/namespaces/inkscape"
   t="1543470305804"
   class="icon"
   style=""
   viewBox="0 0 1024 1024"
   version="1.1"
   p-id="1454"
   width="200"
   height="200"
   id="svg8"
   sodipodi:docname="ic_ali_heart.svg"
   inkscape:version="0.92.3 (2405546, 2018-03-11)">
  <metadata
     id="metadata12">
    <rdf:RDF>
      <cc:Work
         rdf:about="">
        <dc:format>image/svg+xml</dc:format>
        <dc:type
           rdf:resource="http://purl.org/dc/dcmitype/StillImage" />
        <dc:title />
      </cc:Work>
    </rdf:RDF>
  </metadata>
  <sodipodi:namedview
     pagecolor="#ffffff"
     bordercolor="#666666"
     borderopacity="1"
     objecttolerance="10"
     gridtolerance="10"
     guidetolerance="10"
     inkscape:pageopacity="0"
     inkscape:pageshadow="2"
     inkscape:window-width="1830"
     inkscape:window-height="1053"
     id="namedview10"
     showgrid="false"
     inkscape:zoom="3.34"
     inkscape:cx="166.29522"
     inkscape:cy="119.07672"
     inkscape:window-x="81"
     inkscape:window-y="-9"
     inkscape:window-maximized="1"
     inkscape:current-layer="svg8" />
  <defs
     id="defs4">
    <style
       type="text/css"
       id="style2" />
  </defs>
  <path
     d="m 83.050922,407.10093 c 0,102.15478 58.619368,218.37311 142.947298,311.3929 95.56322,105.41313 215.83167,170.73943 287.53471,170.73943 71.03092,0 183.58006,-62.37764 278.9128,-165.76323 86.8534,-94.18998 146.40211,-214.032 145.67132,-316.3691 C 937.62127,337.67413 907.40654,257.40601 862.24836,204.77874 815.90975,150.77579 766.0997,134.016 704.256,134.016 c -82.112,0 -137.20987,22.66865 -164.98587,105.99665 -4.37571,13.03349 -11.98879,18.74948 -25.7372,18.74948 -13.74841,0 -24.42735,-8.78186 -28.80307,-21.81535 -27.776,-83.328 -84.40679,-102.93078 -166.51879,-102.93078 -65.80616,0 -131.20598,37.07251 -177.52643,95.65108 -39.63325,50.12168 -57.633718,112.56999 -57.633718,177.43385 z M 704.256,91.968 c 159.872,0 279.232,139.584 279.232,313.6 0,256.32 -301.888,526.464 -471.488,526.464 -168.896,0 -471.488,-271.552 -471.488,-526.464 0,-174.016 119.36,-313.6 279.232,-313.6 85.44,0 150.4,34.432 192.256,100.736 C 553.792,126.4 618.816,91.968 704.256,91.968 Z"
     p-id="1455"
     id="path6"
     style="fill:#e68080;fill-opacity:1"
     inkscape:connector-curvature="0"
     sodipodi:nodetypes="ssssssscscsssssssscs" />
</svg>
