<?xml version="1.0" standalone="no"?><!DOCTYPE svg PUBLIC "-//W3C//DTD SVG 1.1//EN" "http://www.w3.org/Graphics/SVG/1.1/DTD/svg11.dtd"><svg t="1545398134120" class="icon" style="" viewBox="0 0 1024 1024" version="1.1" xmlns="http://www.w3.org/2000/svg" p-id="3111" xmlns:xlink="http://www.w3.org/1999/xlink" width="200" height="200"><defs><style type="text/css"></style></defs><path d="M740.010667 532.48H283.989333c-11.605333 0-20.48-8.874667-20.48-20.48s8.874667-20.48 20.48-20.48h456.021334c11.605333 0 20.48 8.874667 20.48 20.48s-8.874667 20.48-20.48 20.48z" p-id="3112" fill="#d81e06"></path><path d="M512 760.490667c-11.605333 0-20.48-8.874667-20.48-20.48V283.989333c0-11.605333 8.874667-20.48 20.48-20.48s20.48 8.874667 20.48 20.48v456.021334c0 11.605333-8.874667 20.48-20.48 20.48z" p-id="3113" fill="#d81e06"></path><path d="M826.026667 884.736H197.973333c-32.768 0-59.392-26.624-59.392-59.392V197.973333c0-32.768 26.624-59.392 59.392-59.392h628.053334c32.768 0 59.392 26.624 59.392 59.392v628.053334c-1.365333 33.450667-27.306667 58.709333-59.392 58.709333zM197.973333 179.541333c-9.557333 0-18.432 8.874667-18.432 18.432v627.370667c0 9.557333 8.874667 18.432 18.432 18.432h628.053334c10.24 0 18.432-8.192 18.432-18.432V197.973333c0-9.557333-8.874667-18.432-18.432-18.432H197.973333z" p-id="3114" fill="#d81e06"></path></svg>