<?xml version="1.0" standalone="no"?><!DOCTYPE svg PUBLIC "-//W3C//DTD SVG 1.1//EN" "http://www.w3.org/Graphics/SVG/1.1/DTD/svg11.dtd"><svg t="1546516367135" class="icon" style="" viewBox="0 0 1024 1024" version="1.1" xmlns="http://www.w3.org/2000/svg" p-id="4131" xmlns:xlink="http://www.w3.org/1999/xlink" width="200" height="200"><defs><style type="text/css"></style></defs><path d="M936 547.2c14.4-22.4 14.4-49.6 0-72C809.6 288 667.2 192 512 192c-73.6 0-144 20.8-211.2 64l-83.2-83.2c-12.8-12.8-32-12.8-44.8 0s-12.8 32 0 44.8l75.2 75.2c-56 46.4-108.8 107.2-160 184-14.4 22.4-14.4 49.6 0 72C214.4 736 356.8 832 512 832c73.6 0 144-20.8 211.2-64l83.2 83.2c12.8 12.8 32 12.8 44.8 0s12.8-32 0-44.8L776 731.2c56-46.4 108.8-107.2 160-184zM512 768c-132.8 0-257.6-86.4-371.2-256 49.6-73.6 100.8-131.2 153.6-172.8l107.2 107.2C390.4 465.6 384 488 384 512c0 70.4 57.6 128 128 128 24 0 46.4-6.4 65.6-17.6l99.2 99.2C622.4 752 568 768 512 768z m16-193.6c-4.8 1.6-11.2 1.6-16 1.6-35.2 0-64-28.8-64-64 0-6.4 1.6-11.2 1.6-16l78.4 78.4z m-32-124.8c4.8-1.6 11.2-1.6 16-1.6 35.2 0 64 28.8 64 64 0 6.4-1.6 11.2-1.6 16L496 449.6z m233.6 235.2L622.4 577.6C633.6 558.4 640 536 640 512c0-70.4-57.6-128-128-128-24 0-46.4 6.4-65.6 17.6l-99.2-99.2C401.6 272 456 256 512 256c132.8 0 257.6 86.4 371.2 256-49.6 73.6-100.8 131.2-153.6 172.8z" p-id="4132" fill="#ffffff"></path></svg>