<?xml version="1.0" standalone="no"?><!DOCTYPE svg PUBLIC "-//W3C//DTD SVG 1.1//EN" "http://www.w3.org/Graphics/SVG/1.1/DTD/svg11.dtd"><svg t="1546516338442" class="icon" style="" viewBox="0 0 1024 1024" version="1.1" xmlns="http://www.w3.org/2000/svg" p-id="3951" xmlns:xlink="http://www.w3.org/1999/xlink" width="200" height="200"><defs><style type="text/css"></style></defs><path d="M512 832c-155.2 0-297.6-96-424-284.8-14.4-22.4-14.4-49.6 0-72C214.4 288 356.8 192 512 192s297.6 96 424 284.8c14.4 22.4 14.4 49.6 0 72C809.6 736 667.2 832 512 832z m0-576c-132.8 0-257.6 86.4-371.2 256C256 681.6 380.8 768 512 768s257.6-86.4 371.2-256C769.6 342.4 644.8 256 512 256z" p-id="3952" fill="#ffffff"></path><path d="M512 640c-70.4 0-128-57.6-128-128s57.6-128 128-128 128 57.6 128 128-57.6 128-128 128z m0-192c-35.2 0-64 28.8-64 64s28.8 64 64 64 64-28.8 64-64-28.8-64-64-64z" p-id="3953" fill="#ffffff"></path></svg>