<?xml version="1.0" standalone="no"?><!DOCTYPE svg PUBLIC "-//W3C//DTD SVG 1.1//EN" "http://www.w3.org/Graphics/SVG/1.1/DTD/svg11.dtd"><svg t="1542876380842" class="icon" style="" viewBox="0 0 1024 1024" version="1.1" xmlns="http://www.w3.org/2000/svg" p-id="4693" xmlns:xlink="http://www.w3.org/1999/xlink" width="200" height="200"><defs><style type="text/css"></style></defs><path d="M692.224 495.616 692.224 495.616 692.224 495.616c-4.096-4.096-4.096-4.096-4.096-4.096l-258.048-147.456 0 0c-4.096-4.096-8.192-4.096-12.288-4.096-12.288 0-20.48 8.192-20.48 20.48l0 303.104c0 12.288 8.192 20.48 20.48 20.48 4.096 0 8.192 0 12.288-4.096l0 0 258.048-147.456c0 0 0 0 0 0l4.096 0 0 0c4.096-4.096 8.192-8.192 8.192-16.384S696.32 499.712 692.224 495.616zM438.272 630.784 438.272 393.216l208.896 118.784L438.272 630.784z" p-id="4694"></path><path d="M512 98.304C282.624 98.304 98.304 282.624 98.304 512s184.32 413.696 413.696 413.696c229.376 0 413.696-184.32 413.696-413.696S741.376 98.304 512 98.304zM512 888.832c-208.896 0-376.832-167.936-376.832-376.832 0-208.896 167.936-376.832 376.832-376.832 208.896 0 376.832 167.936 376.832 376.832C888.832 720.896 720.896 888.832 512 888.832z" p-id="4695"></path></svg>