<?xml version="1.0" standalone="no"?><!DOCTYPE svg PUBLIC "-//W3C//DTD SVG 1.1//EN" "http://www.w3.org/Graphics/SVG/1.1/DTD/svg11.dtd"><svg t="1546755087874" class="icon" style="" viewBox="0 0 1024 1024" version="1.1" xmlns="http://www.w3.org/2000/svg" p-id="4302" xmlns:xlink="http://www.w3.org/1999/xlink" width="200" height="200"><defs><style type="text/css"></style></defs><path d="M305.2 123.584 140.688 123.584c-15.136 0-27.408 12.272-27.408 27.408l0 161.216c0 15.136 12.272 27.408 27.408 27.408l164.496 0c15.152 0 27.424-12.272 27.424-27.408L332.608 150.992C332.624 135.84 320.352 123.584 305.2 123.584zM305.2 421.872 140.688 421.872c-15.136 0-27.408 12.272-27.408 27.424l0 157.904c0 15.152 12.272 27.424 27.408 27.424l164.496 0c15.152 0 27.424-12.272 27.424-27.424l0-157.904C332.624 434.144 320.352 421.872 305.2 421.872zM305.2 716.88 140.688 716.88c-15.136 0-27.408 12.288-27.408 27.424l0 161.216c0 15.136 12.272 27.408 27.408 27.408l164.496 0c15.152 0 27.424-12.272 27.424-27.408L332.608 744.304C332.624 729.152 320.352 716.88 305.2 716.88zM911.712 123.584 435.696 123.584c-15.136 0-27.424 12.272-27.424 27.408l0 161.216c0 15.136 12.288 27.408 27.424 27.408l476.016 0c15.136 0 27.408-12.272 27.408-27.408L939.12 150.992C939.12 135.84 926.864 123.584 911.712 123.584zM911.712 421.872 435.696 421.872c-15.136 0-27.424 12.272-27.424 27.424l0 157.904c0 15.152 12.288 27.424 27.424 27.424l476.016 0c15.136 0 27.408-12.272 27.408-27.424l0-157.904C939.12 434.144 926.864 421.872 911.712 421.872zM911.712 716.88 435.696 716.88c-15.136 0-27.424 12.288-27.424 27.424l0 161.216c0 15.136 12.288 27.408 27.424 27.408l476.016 0c15.136 0 27.408-12.272 27.408-27.408L939.12 744.304C939.12 729.152 926.864 716.88 911.712 716.88z" p-id="4303" fill="#515151"></path></svg>