<?xml version="1.0" standalone="no"?><!DOCTYPE svg PUBLIC "-//W3C//DTD SVG 1.1//EN" "http://www.w3.org/Graphics/SVG/1.1/DTD/svg11.dtd"><svg t="1542876283097" class="icon" style="" viewBox="0 0 1024 1024" version="1.1" xmlns="http://www.w3.org/2000/svg" p-id="3308" xmlns:xlink="http://www.w3.org/1999/xlink" width="200" height="200"><defs><style type="text/css"></style></defs><path d="M818.732963 208.222345c-8.163937-30.466895-27.702945-55.929824-55.019081-71.701019l-96.015797-55.434543c-56.388265-32.55444-128.750339-13.165858-161.304779 43.221384L209.587436 638.392642c-5.41022 4.086062-8.756431 10.701736-8.363482 17.98256l15.232936 282.377252c0.384763 7.143701 4.366448 13.605879 10.574846 17.163915 3.243881 1.860371 6.864338 2.793626 10.488889 2.793626 3.313465 0 6.631024-0.780783 9.667174-2.346441L497.492588 827.294966c4.306072-2.220574 7.503904-5.726421 9.411347-9.79918l279.395338-483.926618c0.296759-0.434905 0.61296-0.849344 0.881067-1.311879 0.357134-0.618077 0.677429-1.248434 0.964978-1.885953l18.789948-32.54523C822.707484 270.50997 826.895877 238.688217 818.732963 208.222345zM589.014024 110.041232c19.584034-5.244444 40.034808-2.555196 57.59065 7.581676l96.015797 55.434543c17.556864 10.135848 30.113855 26.501584 35.361369 46.083571 5.246491 19.580964 2.554172 40.033785-7.581676 57.59065l-9.30083 16.109909L533.629623 161.511487l9.30083-16.109909C553.066301 127.845737 569.43306 115.287723 589.014024 110.041232zM512.535189 198.047612l227.468688 131.329071L496.90828 750.430344l-4.188392-19.609617c-2.114151-9.900487-10.859325-16.692171-20.60734-16.692171-1.394766 0-2.809999 0.140193-4.229325 0.428765l-50.179866 10.211573-13.875009-46.64025c-3.116991-10.475586-13.71435-16.838503-24.430412-14.654768l-50.011021 10.18906-13.328563-46.080501c-1.577938-5.455245-5.288446-10.042727-10.290367-12.726859-5.004991-2.688225-10.878768-3.238764-16.295128-1.539053l-20.392446 6.40692L512.535189 198.047612zM244.301052 671.725818l37.225833-11.69332 12.739139 44.045145c3.053546 10.559497 13.69286 17.005302 24.476461 14.809287l50.15633-10.219759 13.873985 46.638203c3.116991 10.475586 13.71435 16.836457 24.426319 14.654768l48.627511-9.896394 7.93574 37.156248L256.827343 903.925251 244.301052 671.725818z" p-id="3309"></path></svg>