<?xml version="1.0" standalone="no"?><!DOCTYPE svg PUBLIC "-//W3C//DTD SVG 1.1//EN" "http://www.w3.org/Graphics/SVG/1.1/DTD/svg11.dtd"><svg t="1542876208452" class="icon" style="" viewBox="0 0 1024 1024" version="1.1" xmlns="http://www.w3.org/2000/svg" p-id="2843" xmlns:xlink="http://www.w3.org/1999/xlink" width="200" height="200"><defs><style type="text/css"></style></defs><path d="M590.516238 958.230064c-0.014326 0-0.024559 0-0.039909 0-30.280654-0.004093-58.734706-11.802814-80.115666-33.223682L97.149621 511.812735c-23.415292-23.409153-35.394115-55.776328-32.865525-88.800465l18.324344-238.008742c4.176113-54.28844 49.981345-100.088556 104.278995-104.266715l237.975996-18.299785c33.012881-2.543939 65.396429 9.42465 88.815815 32.846082l413.222299 413.226393c44.171012 44.180222 44.173059 116.062366 0.004093 160.237471L670.602228 925.050384C649.202848 946.44567 620.759029 958.228017 590.516238 958.230064zM433.597349 104.801904c-1.814322 0-3.63069 0.068562-5.455245 0.209778l-237.980089 18.300808c-33.270754 2.559289-62.420655 31.704073-64.97892 64.968687l0 0.001023L106.857726 426.28071c-1.574868 20.575618 5.89015 40.748053 20.482497 55.336306l413.226393 413.21002c13.328563 13.352099 31.05325 20.699438 49.92097 20.703531 0.008186 0 0.016373 0 0.024559 0 18.670222 0 36.235272-7.205099 49.525973-20.305465l0.384763-0.385786L896.711965 638.556371c27.522844-27.526937 27.520797-72.322166-0.004093-99.853196L483.485573 125.475759C470.186685 112.176872 452.250174 104.801904 433.597349 104.801904z" p-id="2844"></path><path d="M349.566514 458.025715c-64.682161 0-117.303636-52.621475-117.303636-117.303636s52.621475-117.303636 117.303636-117.303636 117.303636 52.621475 117.303636 117.303636S414.247652 458.025715 349.566514 458.025715zM349.566514 266.11794c-41.136909 0-74.604138 33.467229-74.604138 74.604138s33.467229 74.604138 74.604138 74.604138 74.604138-33.467229 74.604138-74.604138S390.7024 266.11794 349.566514 266.11794z" p-id="2845"></path></svg>