<?xml version="1.0" standalone="no"?><!DOCTYPE svg PUBLIC "-//W3C//DTD SVG 1.1//EN" "http://www.w3.org/Graphics/SVG/1.1/DTD/svg11.dtd"><svg t="1542883265216" class="icon" style="" viewBox="0 0 1024 1024" version="1.1" xmlns="http://www.w3.org/2000/svg" p-id="11829" xmlns:xlink="http://www.w3.org/1999/xlink" width="200" height="200"><defs><style type="text/css"></style></defs><path d="M60.014 542.385c0-37.982 30.385-68.367 68.367-68.367 45.578 0 75.964 30.385 75.964 68.367 0 45.578-30.385 75.964-75.964 75.964-37.982 0-68.367-30.385-68.367-75.964zM151.171 276.512v0c0-53.175 37.982-98.753 91.157-98.753s98.753 45.578 98.753 98.753v0c0 53.175-45.578 91.157-98.753 91.157s-91.157-37.982-91.157-91.157v0zM189.153 815.856v0c0-30.385 22.789-53.175 53.175-53.175s53.175 22.789 53.175 53.175v0c0 30.385-22.789 53.175-53.175 53.175s-53.175-22.789-53.175-53.175zM455.027 929.802v0c0-37.982 22.789-60.772 60.772-60.772s60.772 22.789 60.772 60.772v0c0 37.982-22.789 60.772-60.772 60.772-37.982 0-60.772-22.789-60.772-60.772zM751.287 815.856c0-22.789 15.193-37.982 37.982-37.982s37.982 15.193 37.982 37.982c0 22.789-15.193 37.982-37.982 37.982-22.789 0-37.982-15.193-37.982-37.982zM834.847 542.385c0-30.385 30.385-60.772 68.367-60.772 30.385 0 60.772 30.385 60.772 60.772 0 37.982-30.385 68.367-60.772 68.367-37.982 0-68.367-30.385-68.367-68.367zM660.13 276.512c0-75.964 60.772-129.139 129.139-129.139s129.139 53.175 129.139 129.139c0 68.367-60.772 129.139-129.139 129.139-68.367 0-129.139-60.772-129.139-129.139zM386.66 162.566c0-68.367 60.772-129.139 129.139-129.139s129.139 60.772 129.139 129.139c0 68.367-60.772 129.139-129.139 129.139-68.367 0-129.139-60.772-129.139-129.139z" p-id="11830"></path></svg>