<?xml version="1.0" standalone="no"?><!DOCTYPE svg PUBLIC "-//W3C//DTD SVG 1.1//EN" "http://www.w3.org/Graphics/SVG/1.1/DTD/svg11.dtd"><svg t="1546755062899" class="icon" style="" viewBox="0 0 1024 1024" version="1.1" xmlns="http://www.w3.org/2000/svg" p-id="3527" xmlns:xlink="http://www.w3.org/1999/xlink" width="200" height="200"><defs><style type="text/css"></style></defs><path d="M459.839 938.688c-19.29 0-34.985-15.69-34.985-34.98l-3.385-74.585c-0.198-4.325-3.09-8.055-7.225-9.325-19.95-6.125-39.38-14.17-57.75-23.915-1.513-0.805-3.16-1.195-4.798-1.195-2.502 0-4.977 0.915-6.91 2.68l-55.755 50.94c-5.725 5.75-14.51 8.98-23.855 8.98-9.785 0-18.885-3.495-24.965-9.585l-73.717-73.715c-6.62-6.625-10.262-15.415-10.25-24.755 0-9.36 3.647-18.14 10.27-24.745l50.322-55.105c2.917-3.195 3.512-7.88 1.482-11.705-9.75-18.38-17.795-37.81-23.915-57.765-1.27-4.135-5.005-7.03-9.33-7.225 0 0-75.807-3.41-75.96-3.41-18.205 0-33.585-16.01-33.585-34.96L75.528 450.076c0-19.29 15.695-34.985 34.985-34.985l74.58-3.383c4.322-0.197 8.055-3.09 9.325-7.227 6.112-19.93 14.16-39.36 23.915-57.75 2.03-3.825 1.435-8.51-1.485-11.707l-50.935-55.752c-6.17-6.152-9.647-15.035-9.64-24.115 0-9.352 3.647-18.132 10.267-24.732l73.695-73.707c6.245-6.225 15.272-9.802 24.747-9.802 9.48 0 18.49 3.572 24.717 9.802l55.132 50.345c1.932 1.762 4.407 2.677 6.907 2.677 1.635 0 3.28-0.39 4.792-1.192 18.417-9.757 37.852-17.8 57.765-23.905 4.14-1.268 7.035-5.002 7.23-9.327l3.405-75.44c0-9.042 3.515-17.287 9.907-23.687 6.72-6.73 15.617-10.435 25.052-10.435l104.25 0c19.29 0 34.985 15.7 34.985 34.997l3.38 74.582c0.195 4.322 3.09 8.055 7.225 9.325 19.92 6.11 39.355 14.152 57.76 23.905 1.51 0.802 3.16 1.192 4.795 1.192 2.5 0 4.975-0.915 6.905-2.68l55.75-50.922c5.73-5.755 14.515-8.982 23.855-8.982 9.79 0 18.89 3.492 24.97 9.587l73.73 73.717c13.62 13.647 13.625 35.842 0 49.47l-50.34 55.125c-2.92 3.195-3.515 7.877-1.49 11.7 9.74 18.37 17.78 37.807 23.91 57.772 1.27 4.138 5.005 7.03 9.33 7.225 0 0 75.805 3.413 75.96 3.413 18.215 0 33.6 16.007 33.6 34.955l0 104.245c0 19.29-15.7 34.98-35 34.98l-74.585 3.39c-4.325 0.2-8.055 3.09-9.325 7.23-6.09 19.87-14.13 39.3-23.9 57.75-2.025 3.82-1.43 8.5 1.49 11.695l50.92 55.76c6.39 6.385 9.735 14.69 9.74 23.73 0.005 9.51-3.67 18.42-10.345 25.09l-73.715 73.715c-6.24 6.235-15.265 9.815-24.76 9.815-9.495 0-18.505-3.585-24.72-9.83l-55.12-50.33c-1.935-1.76-4.41-2.675-6.905-2.675-1.64 0-3.285 0.39-4.795 1.195-18.43 9.765-37.86 17.815-57.755 23.915-4.135 1.27-7.03 5.005-7.225 9.33l-3.4 75.44c0 9.035-3.515 17.275-9.905 23.67-6.725 6.735-15.63 10.44-25.075 10.44L459.839 938.69zM347.674 748.738c3.625 0 7.168 1.01 10.245 2.925 26.72 16.55 55.84 28.615 86.57 35.86 8.462 2 14.647 9.455 15.035 18.135l3.81 84.175c0.247 5.47 4.755 9.775 10.23 9.775l76.835 0c5.475 0 9.985-4.31 10.23-9.78l3.77-84.15c0.39-8.685 6.57-16.14 15.03-18.13 30.695-7.24 59.825-19.305 86.585-35.86 3.07-1.9 6.625-2.905 10.26-2.905 4.905 0 9.59 1.81 13.185 5.1l62.21 56.825c1.96 1.79 4.435 2.68 6.905 2.68 2.625 0 5.245-1.005 7.24-3l54.325-54.32c3.875-3.87 4.015-10.105 0.32-14.15l-56.825-62.18c-5.86-6.41-6.76-16.06-2.18-23.465 16.52-26.695 28.58-55.815 35.835-86.54 1.995-8.47 9.455-14.655 18.14-15.045l84.185-3.81c5.47-0.25 9.775-4.755 9.775-10.23l0-76.817c0-5.477-4.31-9.985-9.78-10.23l-84.17-3.78c-8.685-0.39-16.14-6.573-18.13-15.032-7.26-30.755-19.32-59.885-35.845-86.582-4.565-7.39-3.665-17.032 2.195-23.447l56.83-62.207c3.695-4.045 3.555-10.277-0.32-14.15l-54.34-54.325c-1.995-1.992-4.615-2.997-7.24-2.997-2.475 0-4.95 0.89-6.91 2.682l-62.18 56.825c-3.6 3.295-8.275 5.107-13.16 5.11-3.635 0-7.205-1.015-10.31-2.935-26.7-16.517-55.815-28.575-86.535-35.83-8.47-1.997-14.65-9.455-15.04-18.135l-3.81-84.185c-0.25-5.47-4.755-9.777-10.23-9.777l-76.82 0c-5.478 0-9.982 4.31-10.23 9.78l-3.785 84.165c-0.387 8.685-6.57 16.142-15.032 18.135-30.715 7.245-59.842 19.302-86.577 35.837-3.077 1.902-6.62 2.91-10.252 2.91-4.905 0-9.595-1.815-13.205-5.11l-62.2-56.822c-1.96-1.79-4.435-2.68-6.907-2.68-2.625 0-5.247 1.005-7.242 3l-54.325 54.34c-3.87 3.872-4.01 10.107-0.315 14.15l56.84 62.18c5.872 6.42 6.772 16.062 2.188 23.445-16.55 26.73-28.612 55.85-35.857 86.562-1.995 8.465-9.452 14.65-18.135 15.037l-84.17 3.81c-5.47 0.247-9.777 4.755-9.777 10.23l0 76.815c0 5.475 4.307 9.985 9.78 10.23l84.15 3.79c8.685 0.385 16.142 6.565 18.137 15.03 7.257 30.725 19.317 59.85 35.85 86.575 4.57 7.4 3.67 17.045-2.19 23.455l-56.832 62.205c-3.692 4.04-3.552 10.275 0.32 14.145l54.325 54.33c1.992 1.995 4.615 3 7.24 3 2.473 0 4.948-0.89 6.91-2.68l62.18-56.84C338.092 750.558 342.779 748.738 347.674 748.738z" p-id="3528" fill="#515151"></path><path d="M338.054 502.221c0 95.927 78.035 173.987 173.935 173.987 95.91-0.01 173.95-78.06 173.95-173.987 0-27.335-6.52-53.135-17.8-76.175l-0.06 0.03c-3.17-6.25-9.63-10.53-17.1-10.53-10.6 0-19.24 8.59-19.24 19.215 0 2.495 0.49 4.865 1.36 7.055l-0.23 0.1c9.09 18.195 14.355 38.61 14.355 60.305 0.005 74.587-60.665 135.247-135.235 135.247-74.565 0-135.2-60.66-135.2-135.247 0-74.59 60.635-135.295 135.2-135.295 13.31 0 26.16 2.03 38.315 5.615l0.135-0.345c1.48 0.365 3.02 0.58 4.61 0.58 10.6 0 19.19-8.59 19.19-19.21 0-7.32-4.08-13.68-10.09-16.92l0.13-0.335c-1.05-0.33-2.105-0.655-3.16-0.965-0.46-0.15-0.92-0.28-1.39-0.4-15.18-4.34-31.185-6.71-47.74-6.71C416.089 328.237 338.054 406.271 338.054 502.221z" p-id="3529" fill="#515151"></path></svg>