<?xml version="1.0" standalone="no"?><!DOCTYPE svg PUBLIC "-//W3C//DTD SVG 1.1//EN" "http://www.w3.org/Graphics/SVG/1.1/DTD/svg11.dtd"><svg t="1546240853941" class="icon" style="" viewBox="0 0 1024 1024" version="1.1" xmlns="http://www.w3.org/2000/svg" p-id="3885" xmlns:xlink="http://www.w3.org/1999/xlink" width="200" height="200"><defs><style type="text/css"></style></defs><path d="M735.877395 64.24214c-59.811224 0-116.027573 23.288402-158.304446 65.574484L409.662729 297.723775c-42.293245 42.25129-65.572438 98.497315-65.572438 158.273746 0 76.547397 38.600133 146.987702 103.270015 188.483792 9.80225 6.279007 21.220301 7.990998 31.759331 5.625114 10.441816-2.297322 20.001543-8.573259 26.235524-18.313088 6.258541-9.775644 7.981788-21.126156 5.659907-31.620162-2.298346-10.492982-8.584516-20.132526-18.339694-26.373671-40.46869-25.960255-64.629973-69.994144-64.629973-117.801986 0-37.383422 14.549368-72.500221 40.98239-98.908684l167.917384-167.907151c26.414603-26.443255 61.561078-40.984437 98.933243-40.984437 77.148078 0 139.924843 62.760392 139.924843 139.891074 0 37.381375-14.559601 72.500221-40.98239 98.940406l-79.651085 79.668481c-8.393157 8.402367-12.483312 19.444864-12.295024 30.455639 0.190335 10.492982 4.28663 20.883633 12.295024 28.910447 8.196683 8.195659 18.939351 12.277628 29.683043 12.277628 10.751878 0 21.494547-4.081968 29.673833-12.277628l79.651085-79.668481c42.294268-42.253336 65.579601-98.496292 65.579601-158.306492C959.756325 164.659177 859.323938 64.24214 735.877395 64.24214zM576.627415 379.51664c-9.79918-6.308683-21.220301-8.023744-31.755238-5.655813-10.435677 2.295276-20.002566 8.607028-26.237571 18.313088-6.247284 9.773598-7.980765 21.125133-5.649674 31.619138 2.289136 10.495028 8.574283 20.131503 18.330484 26.372647 40.4779 25.962302 64.638159 69.995167 64.638159 117.805056 0 37.380352-14.557554 72.498174-40.984437 98.940406L387.053802 834.82036c-26.41665 26.40744-61.559031 40.98239-98.934267 40.98239-77.147054 0-139.922796-62.795185-139.922796-139.921773 0-37.383422 14.549368-72.501244 40.98239-98.94143l79.642898-79.668481c8.393157-8.367575 12.490475-19.445888 12.301164-30.453592-0.188288-10.459213-4.294816-20.88568-12.301164-28.910447-8.197706-8.197706-18.940374-12.277628-29.67588-12.277628-10.760065 0-21.4925 4.079922-29.68202 12.277628l-79.650061 79.667457c-42.295292 42.25129-65.572438 98.495268-65.572438 158.307516 0 123.425054 100.43341 223.876883 223.877907 223.876883 59.811224 0 116.021433-23.285333 158.297282-65.606207l167.909198-167.909198c42.295292-42.25129 65.580624-98.497315 65.580624-158.270676C679.907663 491.423359 641.300366 420.98203 576.627415 379.51664z" p-id="3886" fill="#515151"></path></svg>